<?xml version="1.0" encoding="UTF-8" standalone="no"?>
<!-- Created with Inkscape (http://www.inkscape.org/) -->

<svg
   xmlns:dc="http://purl.org/dc/elements/1.1/"
   xmlns:cc="http://creativecommons.org/ns#"
   xmlns:rdf="http://www.w3.org/1999/02/22-rdf-syntax-ns#"
   xmlns:svg="http://www.w3.org/2000/svg"
   xmlns="http://www.w3.org/2000/svg"
   xmlns:sodipodi="http://sodipodi.sourceforge.net/DTD/sodipodi-0.dtd"
   xmlns:inkscape="http://www.inkscape.org/namespaces/inkscape"
   width="128"
   height="128"
   viewBox="0 0 33.866666 33.866668"
   version="1.1"
   id="svg8"
   inkscape:version="0.92.4 (5da689c313, 2019-01-14)"
   sodipodi:docname="export.svg">
  <defs
     id="defs2" />
  <sodipodi:namedview
     id="base"
     pagecolor="#ffffff"
     bordercolor="#666666"
     borderopacity="1.0"
     inkscape:pageopacity="0.0"
     inkscape:pageshadow="2"
     inkscape:zoom="1.979899"
     inkscape:cx="38.76094"
     inkscape:cy="69.385232"
     inkscape:document-units="mm"
     inkscape:current-layer="layer1"
     showgrid="false"
     units="px"
     inkscape:pagecheckerboard="true"
     inkscape:window-width="1366"
     inkscape:window-height="731"
     inkscape:window-x="0"
     inkscape:window-y="0"
     inkscape:window-maximized="1" />
  <metadata
     id="metadata5">
    <rdf:RDF>
      <cc:Work
         rdf:about="">
        <dc:format>image/svg+xml</dc:format>
        <dc:type
           rdf:resource="http://purl.org/dc/dcmitype/StillImage" />
        <dc:title></dc:title>
      </cc:Work>
    </rdf:RDF>
  </metadata>
  <g
     inkscape:label="Layer 1"
     inkscape:groupmode="layer"
     id="layer1"
     transform="translate(0,-263.13332)">
    <path
       inkscape:connector-curvature="0"
       id="path828"
       d="m 7.9229757,280.98156 v -8.86018 h 3.3037973 3.303798 v 0.52561 0.5256 H 11.752378 8.9741839 v 7.80897 7.80898 h 7.9591491 7.95915 v -7.80898 -7.80897 h -2.778195 -2.778193 v -0.5256 -0.52561 h 3.303798 3.303798 v 8.86018 8.86019 H 16.933333 7.9229757 Z m 8.5598403,-7.46826 v -6.86759 l -1.471354,1.46584 -1.471353,1.46583 -0.321812,-0.34255 -0.321813,-0.34256 2.055805,-2.08572 2.055804,-2.08572 1.991908,2.07416 1.991908,2.07416 -0.33261,0.35404 -0.33261,0.35405 -1.396332,-1.39053 -1.396333,-1.39052 v 6.79234 6.79235 H 17.00842 16.482816 Z"
       style="fill:#0079fe;stroke-width:0.15017262" />
  </g>
</svg>
